<svg xmlns="http://www.w3.org/2000/svg" xmlns:xlink="http://www.w3.org/1999/xlink" version="1.1" x="0px" y="0px" viewBox="0 0 282.7 353.375" style="enable-background:new 0 0 282.7 282.7;" xml:space="preserve"><path d="M188.8,136.2c11.4-21.1,18.8-46.7,18.8-65.2c0-36.9-30-67-67-67c-36.9,0-67,30.1-67,67c0,18.6,7.4,44.2,18.8,65.2  c10.7,19.7,23,32.6,36.1,37.5l-2.1,9.2v0.5c0,3.6,3.3,6.9,6.9,6.9h1.1c0.6,4,1.2,14.1-3.3,23.2c-4.5,9.1-6.6,28.6,3,44.1  c5.3,8.6,16.3,18.8,38.1,18.8c2.8,0,5-2.3,5-5s-2.2-5-5-5c-13.8,0-23.8-4.8-29.6-14.1c-7.1-11.6-6.1-27.3-2.5-34.3  c5.3-10.6,5.1-21.6,4.4-27.6h1.5c3.6,0,6.5-3.4,6.5-6.9v-0.5l-1.8-8.5C164.3,170.1,177.6,156.9,188.8,136.2z M143.8,182.3h-2.3  c-1.2-1-2.6-1.1-4.1-0.8c-0.6,0.2-1.2-0.2-1.6,0.8h-0.5l1.2-6.4c1.4,0.2,2.7,0.2,4.1,0.2c0.7,0,1.4,0.1,2.1,0.1L143.8,182.3z   M140.5,166c-13.2,0-27.5-12.6-39.4-34.6C90.6,112.1,83.6,87.8,83.6,71c0-31.4,25.6-57,57-57s57,25.6,57,57  c0,16.8-7.1,41.1-17.6,60.5C168.1,153.4,153.7,166,140.5,166z M177.9,51.7c-0.9,0.6-1.8,0.9-2.8,0.9c-1.6,0-3.2-0.8-4.1-2.2  C164,40.1,152.5,34,140.1,34c-2.8,0-5-2.2-5-5s2.2-5,5-5c15.7,0,30.3,7.8,39.1,20.8C180.8,47.1,180.2,50.2,177.9,51.7z"  fill="pink"/></svg>